<svg xmlns="http://www.w3.org/2000/svg" viewBox="0 0 16 16"><path style="line-height:normal;text-indent:0;text-align:start;text-decoration-line:none;text-decoration-style:solid;text-decoration-color:#000;text-transform:none;block-progression:tb;white-space:normal;isolation:auto;mix-blend-mode:normal;solid-color:#000;solid-opacity:1" d="M8 0C3.588 0 0 3.588 0 8s3.588 8 8 8 8-3.588 8-8-3.588-8-8-8zm0 1c.231 0 .485.117.773.43.29.312.583.81.832 1.449.234.597.423 1.32.565 2.121H5.83c.142-.8.331-1.524.565-2.121.249-.638.543-1.137.832-1.45C7.515 1.118 7.769 1 8 1zm-1.9.266c-.24.36-.452.776-.637 1.25A12.45 12.45 0 0 0 4.807 5H1.68A6.993 6.993 0 0 1 6.1 1.266zm3.8 0A6.993 6.993 0 0 1 14.32 5h-3.127a12.45 12.45 0 0 0-.656-2.484 6.578 6.578 0 0 0-.637-1.25zM1.293 6h3.394a19.071 19.071 0 0 0-.115 2c0 .696.048 1.357.115 2H1.293A7.003 7.003 0 0 1 1 8c0-.696.105-1.366.293-2zm4.402 0h4.61c.071.638.123 1.3.123 2s-.052 1.36-.123 2h-4.61c-.071-.64-.123-1.3-.123-2s.052-1.362.123-2zm5.617 0h3.395c.188.634.293 1.304.293 2s-.105 1.366-.293 2h-3.395c.068-.643.116-1.304.116-2s-.048-1.358-.116-2zm-9.63 5h3.125c.152.926.375 1.768.656 2.486.184.473.396.887.635 1.246A6.993 6.993 0 0 1 1.682 11zm4.15 0h4.336c-.141.8-.33 1.527-.563 2.123-.249.639-.543 1.136-.832 1.45-.288.312-.542.427-.773.427-.231 0-.485-.115-.773-.428-.29-.313-.583-.81-.832-1.449-.233-.596-.422-1.323-.563-2.123zm5.361 0h3.125a6.993 6.993 0 0 1-4.416 3.732c.239-.36.45-.773.635-1.246.28-.718.504-1.56.656-2.486z" color="#000" enable-background="accumulate" font-family="sans-serif" font-weight="400" overflow="visible" fill="#34a853" class="color000000 svgShape"></path></svg>