<svg  xmlns="http://www.w3.org/2000/svg"
 width="512.000000pt" height="512.000000pt" viewBox="0 0 512.000000 512.000000" >
    <!-- -->
    <g fill="#2B3A55" transform="translate(0.000000,512.000000) scale(0.100000,-0.100000)">
        <path d="M2004 4611 c-350 -96 -662 -275 -931 -534 l-103 -100 0 -87 c0 -111
-27 -220 -82 -330 -53 -105 -167 -226 -275 -289 -68 -40 -73 -46 -87 -95 -62
-213 -86 -381 -86 -611 0 -238 22 -400 82 -602 l21 -72 71 -42 c215 -127 356
-372 356 -620 l0 -87 107 -102 c267 -255 563 -426 904 -524 140 -40 154 -41
188 -16 97 68 245 110 391 110 147 0 294 -42 391 -111 l31 -22 77 18 c358 84
707 277 985 546 l106 102 0 87 c0 111 27 220 82 330 53 105 167 226 274 289
l71 42 21 72 c59 200 82 363 82 594 0 198 -18 352 -59 514 -36 142 -46 168
-68 176 -10 3 -48 26 -85 50 -193 127 -318 359 -318 593 l0 87 -103 100 c-282
271 -629 464 -988 548 l-77 18 -31 -22 c-97 -69 -244 -111 -391 -111 -146 0
-294 42 -389 109 -36 26 -43 26 -167 -8z m263 -221 c106 -64 150 -75 293 -75
143 0 187 11 293 75 l66 40 115 -30 c337 -87 637 -260 883 -512 l81 -83 5
-110 c3 -81 10 -126 27 -170 51 -134 157 -254 277 -313 l52 -26 30 -110 c55
-201 65 -281 65 -516 0 -235 -10 -315 -65 -516 l-30 -110 -52 -26 c-120 -59
-226 -179 -277 -313 -17 -44 -24 -89 -27 -170 l-5 -110 -81 -83 c-245 -250
-548 -426 -884 -512 l-114 -30 -66 40 c-106 64 -150 75 -293 75 -143 0 -187
-11 -293 -75 l-66 -40 -115 30 c-334 86 -638 262 -883 512 l-81 83 -5 110 c-3
81 -10 126 -27 170 -51 134 -157 254 -277 313 l-52 26 -30 110 c-55 201 -65
281 -65 516 0 235 10 315 65 516 l30 110 52 26 c120 59 226 179 277 313 17 44
24 89 27 170 l5 110 81 83 c245 250 544 424 882 512 61 16 111 29 113 30 2 0
33 -18 69 -40z"/>
        <path d="M2092 4334 c-300 -79 -575 -235 -812 -460 l-90 -86 0 -73 c0 -93 -30
-207 -77 -298 -46 -87 -152 -198 -237 -248 -56 -32 -61 -38 -78 -94 -51 -169
-63 -269 -63 -515 0 -246 12 -346 63 -515 17 -56 22 -62 78 -94 187 -110 313
-331 314 -552 l0 -67 90 -86 c239 -226 513 -382 812 -460 l98 -25 57 35 c96
58 180 79 313 79 133 0 217 -21 312 -79 l58 -34 107 28 c299 78 564 229 804
457 l89 85 0 73 c0 93 30 207 77 298 46 87 152 198 237 248 56 32 61 38 78 94
51 169 63 269 63 515 0 246 -12 346 -63 515 -17 56 -22 62 -78 94 -85 50 -191
161 -237 248 -47 91 -77 205 -77 298 l0 73 -90 86 c-240 228 -513 382 -814
460 l-95 25 -55 -33 c-97 -59 -185 -81 -316 -81 -131 0 -219 22 -317 81 -30
19 -56 34 -57 34 0 -1 -43 -12 -94 -26z m613 -446 c62 -32 129 -103 158 -166
32 -71 30 -189 -5 -263 -118 -255 -477 -255 -597 0 -21 46 -26 70 -26 136 1
96 23 151 86 220 73 79 140 106 254 101 62 -2 91 -8 130 -28z m-909 -513 c68
-30 124 -82 159 -147 40 -74 47 -187 15 -271 -26 -69 -94 -143 -165 -177 -42
-20 -65 -25 -140 -25 -76 0 -98 4 -140 25 -71 34 -139 108 -165 177 -32 84
-25 197 15 271 84 155 263 217 421 147z m1790 0 c68 -30 124 -82 159 -147 40
-74 47 -187 15 -271 -26 -69 -94 -143 -165 -177 -42 -21 -65 -25 -140 -25 -75
0 -98 4 -140 25 -71 34 -139 108 -165 177 -32 84 -25 197 15 271 84 155 263
217 421 147z m-957 -693 c124 -66 72 -262 -69 -262 -78 0 -140 64 -140 144 0
104 115 168 209 118z m-823 -342 c69 -34 138 -108 164 -177 32 -84 25 -197
-15 -271 -127 -233 -453 -233 -580 0 -37 67 -46 180 -21 255 32 95 115 178
210 209 63 21 182 13 242 -16z m1790 0 c69 -34 138 -108 164 -177 32 -84 25
-197 -15 -271 -127 -233 -453 -233 -580 0 -37 67 -46 180 -21 255 32 95 115
178 210 209 63 21 182 13 242 -16z m-929 -505 c232 -74 296 -378 115 -547
-161 -150 -421 -100 -519 101 -39 79 -40 191 -2 272 74 156 239 227 406 174z"/>
    </g>
</svg>